# xmcd
#
# Track frame offsets:
# 150
# 23084
# 33864
# 60198
# 76975
# 98372
# 108966
# 126318
# 144249
# 159952
# 184980
#
# Disc length: 2629 seconds
#
#
# Revision: 0
# Processed by: cddbd v1.4PL0 Copyright (c) Steve Scherf et al.
# Submitted via: FreeRIP 2.51 
#
DISCID=770a430b
DTITLE=Big Blues Quartet - Qin' Up
DYEAR=2002
DGENRE=Blues
TTITLE0=Cryin' All Night Long
TTITLE1=The Hustle is On
TTITLE2=Louise
TTITLE3=Here in the Dark
TTITLE4=Jumpin' the Blues
TTITLE5=Shame Shame Shame
TTITLE6=Evening Shadows
TTITLE7=T-Bone Shufle
TTITLE8=Early in the Morning
TTITLE9=Easy Baby
TTITLE10=Sugaree
EXTD=
EXTT0=
EXTT1=
EXTT2=
EXTT3=
EXTT4=
EXTT5=
EXTT6=
EXTT7=
EXTT8=
EXTT9=
EXTT10=
PLAYORDER=
